<svg width="200" height="26" viewBox="0 0 200 26" fill="none" xmlns="http://www.w3.org/2000/svg">
<path d="M13.065 0C12.5067 0.000895957 11.949 0.0361154 11.395 0.105444L10.8091 0.181583L12.0845 2.57146L12.2681 2.55781C12.5338 2.53828 12.8033 2.52851 13.0709 2.52851C15.0618 2.5162 17.0148 3.07213 18.7005 4.13099C20.3862 5.18985 21.7346 6.70764 22.5873 8.50605C23.44 10.3045 23.7615 12.3088 23.514 14.2835C23.2666 16.2583 22.4605 18.1214 21.1904 19.6541L22.4581 22.0322C24.8203 19.6193 26.141 16.376 26.136 12.9999C26.1301 5.83218 20.2685 0 13.065 0Z" fill="#005787"/>
<path d="M13.0651 23.4754C10.9331 23.4814 8.85031 22.8355 7.09605 21.6244L13.2526 10.0597L17.5321 18.2251H20.5049L13.2272 4.73123L11.815 7.30269L5.0061 19.7324C3.9105 18.4361 3.14748 16.8924 2.78308 15.2349C2.41869 13.5774 2.4639 11.8561 2.91481 10.22C3.36573 8.58392 4.20875 7.08235 5.3709 5.84528C6.53305 4.60821 7.9793 3.67293 9.58445 3.1204L8.38322 0.867188C5.92387 1.80764 3.80684 3.47015 2.31055 5.63607C0.814253 7.80199 0.00875985 10.3699 0 13.0021C0 20.1717 5.85966 26.002 13.0651 26.002C15.7376 26.0101 18.3472 25.1917 20.5362 23.659L19.3349 21.4057C17.5195 22.7468 15.3224 23.472 13.0651 23.4754Z" fill="#00ADEE"/>
<path d="M10.94 18.2135L13.2175 13.7344L15.493 18.2135H10.94Z" fill="#005787"/>
<path d="M49.4165 18.5678H40.1524L38.6327 21.8871H35.0134L42.9611 4.25781H46.6058L54.5534 21.8871H50.9087L49.4165 18.5678ZM44.7834 7.96566L41.504 15.4692H48.0844L44.7834 7.96566Z" fill="#005787"/>
<path d="M67.9428 16.6934H62.9308V21.8832H59.5889V4.25976C62.3742 4.25976 65.1575 4.23438 67.9428 4.23438C76.5975 4.23438 76.6229 16.6934 67.9428 16.6934ZM62.9308 13.6475H67.9428C72.2203 13.6475 72.195 7.39941 67.9428 7.39941H62.9308V13.6475Z" fill="#005787"/>
<path d="M88.8481 16.6934H83.8361V21.8832H80.4941V4.25976C83.2794 4.25976 86.0628 4.23438 88.8481 4.23438C97.5047 4.23438 97.5301 16.6934 88.8481 16.6934ZM83.8361 13.6475H88.8481C93.1256 13.6475 93.1002 7.39941 88.8481 7.39941H83.8361V13.6475Z" fill="#005787"/>
<path d="M133.165 4.23438H136.507V21.889H134.43V21.9125L125.116 10.0021V21.889H121.781V4.25976H124.49L133.173 15.1939L133.165 4.23438Z" fill="#005787"/>
<path d="M147.955 7.28617H142.325V4.26562H156.906V7.28617H151.287V21.8949H147.955V7.28617Z" fill="#005787"/>
<path d="M178.798 4.28906V14.3894C178.798 19.6027 175.585 22.2718 171.129 22.2718C166.877 22.2718 163.256 19.7022 163.256 14.3894V4.28906H166.577V14.3894C166.577 17.5623 168.399 19.2493 171.159 19.2493C173.919 19.2493 175.487 17.4119 175.487 14.3894V4.28906H178.798Z" fill="#005787"/>
<path d="M196.785 8.51607C196.178 7.50857 194.507 6.55184 192.584 6.55184C190.103 6.55184 188.913 7.58472 188.913 8.89486C188.913 10.4315 190.736 10.8591 192.861 11.111C196.556 11.564 200 12.5207 200 16.7264C200 20.6568 196.508 22.3438 192.558 22.3438C188.939 22.3438 186.154 21.2348 184.837 18.0112L187.622 16.5761C188.404 18.5149 190.457 19.3721 192.609 19.3721C194.709 19.3721 196.683 18.6418 196.683 16.7264C196.683 15.0648 194.937 14.3834 192.582 14.1335C188.962 13.7059 185.62 12.7472 185.62 8.79528C185.62 5.1675 189.214 3.68163 192.48 3.65625C195.24 3.65625 198.099 4.43727 199.441 7.15713L196.785 8.51607Z" fill="#005787"/>
<path d="M101.351 21.8916H114.613V18.6484H101.351V21.8916Z" fill="#00ADEE"/>
<path d="M114.613 7.48924V4.26562H101.351V7.48924H114.613Z" fill="#00ADEE"/>
<path d="M104.665 11.5391H101.345V14.5967H114.254V11.5391H104.665Z" fill="#00ADEE"/>
</svg>
