<svg width="499" height="80" viewBox="0 0 499 80" fill="none" xmlns="http://www.w3.org/2000/svg">
<path fill-rule="evenodd" clip-rule="evenodd" d="M39.9996 0.71979C18.306 0.71979 0.71979 18.3067 0.71979 40.0011C0.71979 61.6942 18.306 79.2802 39.9996 79.2802C61.6926 79.2802 79.2788 61.6942 79.2788 40.0011C79.2788 18.3067 61.6925 0.71979 39.9996 0.71979ZM0 40.0011C0 17.9092 17.9084 0 39.9996 0C62.0901 0 79.9985 17.9092 79.9985 40.0011C79.9985 62.0917 62.0901 80 39.9996 80C17.9085 80 0 62.0917 0 40.0011Z" fill="black"/>
<path d="M60.3416 37.8291C59.7706 37.8291 59.3076 38.2921 59.3076 38.8633C59.3076 39.4344 59.7706 39.8974 60.3416 39.8974C60.9129 39.8974 61.3759 39.4344 61.3759 38.8633C61.3759 38.2921 60.9127 37.8291 60.3416 37.8291ZM60.1579 38.9453C59.9963 38.9453 59.8669 38.8159 59.8669 38.6551C59.8669 38.4942 59.9963 38.3648 60.1579 38.3648C60.3182 38.3648 60.4472 38.4942 60.4472 38.6551C60.4472 38.8159 60.3182 38.9453 60.1579 38.9453Z" fill="black"/>
<path d="M19.6419 37.8555C19.0709 37.8555 18.6079 38.3185 18.6079 38.8896C18.6079 39.4608 19.0709 39.9238 19.6419 39.9238C20.2132 39.9238 20.6762 39.4608 20.6762 38.8896C20.6762 38.3185 20.2132 37.8555 19.6419 37.8555ZM19.8409 38.9452C19.6811 38.9452 19.5507 38.8158 19.5507 38.655C19.5507 38.4941 19.6813 38.3647 19.8409 38.3647C20.002 38.3647 20.1317 38.4941 20.1317 38.655C20.1317 38.8158 20.0018 38.9452 19.8409 38.9452Z" fill="black"/>
<path d="M40.0005 4.02471H39.9983C30.0661 4.02471 21.0729 8.0532 14.5624 14.5635C8.05243 21.0747 4.02286 30.0678 4.02286 40H4.02502V40.0022H4.02286C4.02286 49.9336 8.05279 58.9269 14.5624 65.4374C21.0729 71.9493 30.0658 75.9755 39.9983 75.9755V75.9748H40.0005V75.9755C49.9327 75.9755 58.9252 71.9491 65.4366 65.4374C71.9486 58.9269 75.9752 49.9338 75.976 40.0009H75.9752V40.0002H75.976C75.9752 30.068 71.9482 21.0755 65.4366 14.5637C58.9265 8.05302 49.9329 4.02471 40.0005 4.02471ZM39.9998 3.54803H40.0005V3.54947C50.0637 3.54947 59.1775 7.62996 65.774 14.2261C72.37 20.823 76.4507 29.9343 76.4507 40H76.4528V40.0007H76.4507C76.4507 50.0645 72.37 59.1786 65.774 65.7746C59.1779 72.3708 50.0659 76.4513 40.0005 76.4513V76.4534H39.9983V76.4513C29.9353 76.4513 20.8213 72.3708 14.225 65.7746C7.62739 59.1786 3.54834 50.0643 3.54834 40.002V39.9998C3.54834 29.9354 7.62739 20.8228 14.2271 14.2259C20.8233 7.62978 29.9353 3.54929 39.9983 3.54929V3.54785L39.9998 3.54803Z" fill="black"/>
<path fill-rule="evenodd" clip-rule="evenodd" d="M16.6607 16.6615C17.4581 15.8641 18.297 15.1066 19.1731 14.3936L19.8546 15.2309C19.0072 15.9207 18.1956 16.6535 17.4242 17.4249C12.876 21.9747 9.69131 27.8874 8.54274 34.4965L7.479 34.3116C8.66688 27.4764 11.9603 21.3636 16.6606 16.6616L16.6607 16.6615Z" fill="black"/>
<path fill-rule="evenodd" clip-rule="evenodd" d="M22.896 11.7692C27.1778 9.12356 32.8688 7.46206 37.7815 7.04199L37.8735 8.11775C33.1014 8.5258 27.5791 10.1447 23.4635 12.6877L22.896 11.7692Z" fill="black"/>
<path fill-rule="evenodd" clip-rule="evenodd" d="M42.8005 7.11035C44.1466 7.22358 45.4697 7.41749 46.7653 7.68774L46.5448 8.74468C45.292 8.48336 44.0123 8.29578 42.71 8.18624L42.8005 7.11035Z" fill="black"/>
<path fill-rule="evenodd" clip-rule="evenodd" d="M51.9363 9.23926C56.2273 10.913 60.0832 13.4599 63.2842 16.6609C68.6928 22.0692 72.2315 29.3435 72.8554 37.4351L71.7789 37.5181C71.1755 29.6926 67.7538 22.6571 62.5207 17.4244L62.5207 17.4244C59.4236 14.3272 55.6935 11.8637 51.5439 10.2451L51.9363 9.23926Z" fill="black"/>
<path d="M39.9998 3.54803H40.0005V3.54947C50.0637 3.54947 59.1775 7.62996 65.774 14.2261C72.37 20.823 76.4507 29.9343 76.4507 40H76.4528V40.0007H76.4507C76.4507 50.0645 72.37 59.1786 65.774 65.7746C59.1779 72.3708 50.0659 76.4513 40.0005 76.4513V76.4534H39.9983V76.4513C29.9353 76.4513 20.8213 72.3708 14.225 65.7746C7.62739 59.1786 3.54834 50.0643 3.54834 40.002V39.9998C3.54834 29.9354 7.62739 20.8228 14.2271 14.2259C20.8233 7.62978 29.9353 3.54929 39.9983 3.54929V3.54785L39.9998 3.54803Z" stroke="black" stroke-width="0.5" stroke-miterlimit="2.613"/>
<path d="M20.0851 61.4785L21.3003 63.1526L23.2675 62.5132L22.0521 64.1873L23.2675 65.8599L21.3003 65.2194L20.0851 66.8942V64.8252L18.1172 64.1873L20.0851 63.5468V61.4785Z" fill="black"/>
<path d="M59.5737 61.8203L58.3583 63.4944L56.3911 62.8546L57.6063 64.5287L56.3911 66.2013L58.3583 65.5627L59.5737 67.2357V65.1684L61.5414 64.5287L59.5737 63.8886V61.8203Z" fill="black"/>
<path d="M40.3302 18.877H39.6694V38.3984H40.3302V18.877Z" fill="black"/>
<path d="M35.6862 17.9077C35.8338 18.2802 35.9218 18.7625 35.9218 19.2883C35.9218 19.6327 35.8845 19.9575 35.8163 20.2456C37.0295 19.9588 38.2456 19.8492 39.461 19.9841L38.3984 17.6709C37.8902 17.6709 37.3993 17.6934 36.9286 17.7377C36.5023 17.7776 36.0875 17.8346 35.6862 17.9077ZM34.7759 20.5339C34.742 20.1614 34.6231 19.7444 34.4167 19.3369C34.229 18.9663 33.9947 18.6514 33.7455 18.4105C32.2553 18.9201 31.0385 19.6469 30.0812 20.4308V20.4315L29.9061 20.5776L29.7388 20.7251C29.4527 20.9796 29.1952 21.2369 28.9655 21.4885L28.9569 21.4991L28.9547 21.5005V21.502L28.9526 21.5027L28.9504 21.5063C27.531 22.8537 25.768 23.6705 24.1678 24.4135C23.1423 24.8881 22.186 25.3316 21.4475 25.858C22.3417 25.5206 23.202 25.3583 24.087 25.1923C25.7916 24.8726 27.5798 24.5364 29.8129 22.8361L29.8439 22.8178C31.4877 21.8721 33.1304 21.0553 34.7759 20.5339ZM34.1889 18.2676C34.4021 18.508 34.6071 18.8089 34.78 19.1519C35.0028 19.5911 35.1377 20.0298 35.1849 20.4108L35.3486 20.3658C35.4541 20.048 35.5131 19.6804 35.5131 19.2883C35.5131 18.8011 35.421 18.3506 35.2664 17.9899C34.8934 18.07 34.5347 18.1629 34.1889 18.2676ZM38.4747 17.2667H38.5281L38.7122 17.3848L39.9733 20.1346L39.9972 20.2625C39.9817 20.3728 39.8777 20.4502 39.7681 20.434C38.1571 20.1887 36.5431 20.4038 34.9274 20.9105C33.3037 21.4215 31.6775 22.2277 30.0517 23.164C27.745 24.9163 25.91 25.2622 24.1608 25.5891C22.9328 25.8204 21.7469 26.0426 20.4747 26.7595V26.7581L20.2528 26.7419L20.2163 26.4579C21.0075 25.4324 22.4246 24.775 23.9992 24.0448C25.5723 23.3159 27.3064 22.5131 28.6749 21.2085L28.6771 21.207C28.9175 20.9434 29.1811 20.6784 29.4699 20.4219L29.6429 20.2708L29.8242 20.1189C31.1816 19.0075 33.0386 18.0094 35.4314 17.5448C35.8953 17.4533 36.3824 17.3832 36.8928 17.3353C37.3984 17.2885 37.9264 17.2646 38.4747 17.2667Z" fill="black"/>
<path d="M29.6846 20.5015C29.6977 20.7715 29.7413 21.0632 29.8172 21.3612C29.9585 21.908 30.1841 22.3811 30.4414 22.7108C30.5652 22.6411 30.6889 22.5722 30.8125 22.5054C30.5566 22.1898 30.3401 21.7583 30.2115 21.2591C30.1123 20.8704 30.0805 20.4902 30.106 20.1514L29.9522 20.2752L29.6846 20.5015Z" fill="black"/>
<path d="M28.8262 21.3418C28.8749 21.5343 28.9386 21.7319 29.0202 21.9322C29.2185 22.4229 29.4826 22.8375 29.7603 23.1285L29.9365 22.9957L30.1178 22.8924C29.8368 22.6169 29.5811 22.2338 29.3973 21.7788C29.2879 21.5068 29.2127 21.2361 29.1731 20.9775C29.0518 21.0999 28.9372 21.2208 28.8262 21.3418Z" fill="black"/>
<path d="M23.8852 25.2881L39.9644 31.9447L39.8323 32.2652L23.7544 25.6071L23.8852 25.2881Z" fill="black"/>
<path d="M23.5121 24.5811L23.82 25.4484L20.9331 26.1725L21.3169 25.6242L23.5121 24.5811Z" fill="black"/>
<path d="M44.3128 17.9077C44.1666 18.2802 44.0785 18.7625 44.0785 19.2883C44.0785 19.6327 44.1157 19.9575 44.1832 20.2456C42.9693 19.9588 41.7546 19.8492 40.5378 19.9841L41.602 17.6709C42.1088 17.6709 42.5988 17.6934 43.0704 17.7377C43.4974 17.7776 43.9107 17.8346 44.3128 17.9077ZM45.2224 20.5339C45.2562 20.1614 45.3757 19.7444 45.5823 19.3369C45.77 18.9663 46.0041 18.6514 46.254 18.4105C47.7435 18.9201 48.9626 19.6469 49.9176 20.4308L49.919 20.4315L50.0936 20.5776L50.2609 20.7251C50.5478 20.9796 50.8054 21.2369 51.0334 21.4885L51.0426 21.4991L51.0455 21.5005V21.502L51.0469 21.5027L51.05 21.5063C52.4678 22.8537 54.2315 23.6705 55.831 24.4135C56.8573 24.8881 57.8121 25.3316 58.5527 25.858C57.6586 25.5206 56.7968 25.3583 55.9132 25.1923C54.2075 24.8726 52.419 24.5364 50.1861 22.8361L50.1558 22.8178C48.512 21.8721 46.8685 21.0553 45.2224 20.5339ZM45.8121 18.2676C45.597 18.508 45.3924 18.8089 45.2179 19.1519C44.9971 19.5911 44.8611 20.0298 44.813 20.4108L44.6502 20.3658C44.5445 20.048 44.4857 19.6804 44.4857 19.2883C44.4857 18.8011 44.5771 18.3506 44.7331 17.9899C45.107 18.07 45.4662 18.1629 45.8121 18.2676ZM41.5236 17.2667H41.4716L41.2886 17.3848L40.0253 20.1346L40.0005 20.2625C40.0176 20.3728 40.1216 20.4502 40.231 20.434C41.8421 20.1887 43.456 20.4038 45.0712 20.9105C46.6947 21.4215 48.3209 22.2277 49.9467 23.164C52.2551 24.9163 54.0884 25.2622 55.8369 25.5891C57.0671 25.8204 58.2531 26.0426 59.523 26.7595V26.7581L59.7458 26.7419L59.783 26.4579C58.9909 25.4324 57.5738 24.775 56 24.0448C54.4269 23.3159 52.6942 22.5131 51.3235 21.2085L51.3213 21.207C51.0809 20.9434 50.8173 20.6784 50.5301 20.4219L50.3557 20.2708L50.1742 20.1189C48.8176 19.0075 46.9592 18.0094 44.5672 17.5448C44.104 17.4533 43.6176 17.3832 43.1058 17.3353C42.6006 17.2885 42.0719 17.2646 41.5236 17.2667Z" fill="black"/>
<path d="M50.3144 20.5015C50.3004 20.7715 50.2576 21.0632 50.1824 21.3612C50.042 21.908 49.8147 22.3811 49.5581 22.7108C49.4343 22.6411 49.3092 22.5722 49.1865 22.5054C49.4431 22.1898 49.6596 21.7583 49.7875 21.2591C49.8867 20.8704 49.9195 20.4902 49.893 20.1514L50.0467 20.2752L50.3144 20.5015Z" fill="black"/>
<path d="M51.1727 21.3418C51.1255 21.5343 51.0595 21.7319 50.981 21.9322C50.7807 22.4229 50.5157 22.8375 50.2387 23.1285L50.0627 22.9957L49.8813 22.8924C50.1613 22.6169 50.4176 22.2338 50.6026 21.7788C50.7122 21.5068 50.7856 21.2361 50.8261 20.9775C50.947 21.0999 51.0623 21.2208 51.1727 21.3418Z" fill="black"/>
<path d="M56.1132 25.2881L40.0347 31.9447L40.1668 32.2652L56.2454 25.6071L56.1132 25.2881Z" fill="black"/>
<path d="M56.4866 24.5811L56.1787 25.4484L59.0656 26.1725L58.6818 25.6242L56.4866 24.5811Z" fill="black"/>
<path d="M37.9673 17.4917L39.766 14.4846C39.8434 14.3573 40.0095 14.3152 40.1385 14.3917L40.2355 14.4923L42.0309 17.4917V17.7693L40.2314 20.7764C40.154 20.9037 39.9877 20.9458 39.8609 20.8693L39.766 20.7764L37.9673 17.7693V17.4917Z" fill="black"/>
<path d="M39.9995 15.1504L38.5156 17.6302L39.9995 20.1101L41.484 17.6302L39.9995 15.1504Z" fill="black"/>
<path d="M42.5232 65.4543C44.4795 56.6987 39.661 55.0594 42.1387 45.2713C42.1799 45.1069 42.2179 44.9426 42.2503 44.7758C42.2854 44.6099 42.3138 44.4425 42.3402 44.2739C42.4119 43.7976 42.4344 43.3502 42.4414 42.9266C42.4723 41.085 42.5004 39.6377 44.013 38.3808C44.5358 37.9464 45.1181 37.5655 45.7479 37.2244C50.9826 34.3867 59.4504 34.3516 63.5465 30.0033C62.9306 28.5531 62.1836 27.1729 61.3204 25.8744C58.0216 31.8928 45.343 29.0545 39.9277 35.8954C34.3905 28.5843 22.1494 31.668 18.6838 25.8633C17.8251 27.1553 17.0821 28.5287 16.4663 29.9711C23.551 36.1498 30.3167 32.83 35.675 38.5467C37.4611 40.2141 37.8365 42.3573 37.4946 44.7759C37.1185 47.4527 36.7565 49.6703 36.7926 52.1723C36.8151 53.7384 36.8545 55.0986 37.4527 56.5157C38.4386 58.8504 38.699 62.5913 37.224 65.4294C38.1356 65.5279 39.0614 65.5784 39.9991 65.5784V65.577H39.9998V65.5784C40.8524 65.5779 41.6924 65.5358 42.5232 65.4543Z" fill="black"/>
<path d="M39.9995 14.4236V14.4243H39.9981V14.4236C32.938 14.4236 26.5441 17.288 21.9155 21.9168C17.2856 26.5463 14.423 32.9393 14.423 40.0001V40.0015C14.423 47.0614 17.2853 53.4565 21.9148 58.0839C26.5445 62.7129 32.938 65.578 39.9981 65.578V65.5766H40.0002V65.578C47.0603 65.578 53.4544 62.7129 58.0828 58.0839C62.7123 53.4565 65.576 47.0614 65.576 40.0015H65.5753V40.0001H65.576C65.576 32.9393 62.7123 26.5461 58.0843 21.9168C53.4542 17.288 47.0605 14.4236 39.9995 14.4236ZM39.9995 13.9609V13.9624C47.189 13.9624 53.6995 16.8781 58.4103 21.5891C63.1228 26.3008 66.0385 32.8104 66.0385 39.9999V40.0013C66.0385 47.1901 63.1228 53.6998 58.4103 58.4121C53.6991 63.124 47.189 66.0383 39.9999 66.0383V66.0405H39.9977V66.0383C32.809 66.0383 26.2992 63.124 21.5869 58.4121C16.875 53.6996 13.9609 47.1902 13.9609 40.0013V39.9999C13.9609 32.8104 16.875 26.3007 21.5869 21.5891C26.2994 16.8781 32.8088 13.9624 39.9977 13.9624V13.9609H39.9995Z" fill="black"/>
<path d="M9.95361 28.911C10.3614 28.6672 10.8667 28.5502 11.2168 28.6543C11.6442 28.78 11.9437 29.161 12.1166 29.7966C12.6975 29.3165 13.2229 29.1457 13.6911 29.2841C14.0418 29.3874 14.3015 29.6539 14.4716 30.0832C14.6403 30.5113 14.6358 31.0279 14.4575 31.6311C14.304 32.1366 14.0442 32.578 13.6787 32.9568C13.3118 33.3351 12.1693 33.9269 10.2512 34.7309L10.2007 34.0772C11.4013 33.51 12.1801 33.1044 12.5386 32.8589C12.8954 32.6136 13.1358 32.2847 13.2583 31.8728C13.3737 31.4834 13.3849 31.146 13.2933 30.8584C13.2018 30.5709 13.0507 30.396 12.8398 30.3333C12.6266 30.2707 12.4011 30.3123 12.165 30.4584C12.1081 30.8014 12.0363 31.1185 11.95 31.4109C11.8866 31.6247 11.7763 31.9471 11.6174 32.3788L10.4407 32.2789C10.5743 31.9367 10.6844 31.614 10.774 31.3103C11.1029 30.2011 11.0144 29.572 10.5118 29.423C10.3016 29.3611 9.77655 29.7179 9.52588 29.992L9.95361 28.911Z" fill="black"/>
<path d="M13.8958 21.2295L18.5327 24.0369L18.3837 24.2807L16.8844 24.7412L15.0075 23.5933L14.1303 25.0273C13.7092 25.7161 13.7626 26.2223 14.2884 26.5442C14.72 26.8079 15.5425 26.7017 16.7557 26.2257L16.8358 26.8106C15.2036 27.4735 14.0086 27.5717 13.2485 27.1071C12.8825 26.8786 12.656 26.5765 12.5676 26.2018C12.4805 25.8264 12.5381 25.4728 12.742 25.141L14.0466 23.0056L13.1974 22.5138L13.8958 21.2295Z" fill="black"/>
<path d="M17.8382 16.7461C18.1051 16.8748 18.5717 17.178 18.8011 17.4051C19.4198 18.0216 19.5884 18.8159 19.3052 19.7886C20.1173 19.6972 21.2529 19.4583 22.7109 19.0717L22.649 19.6636C19.3835 20.4958 17.5093 20.6729 17.0297 20.195C16.7202 19.8871 16.7598 19.5398 17.1462 19.1518C17.3355 18.962 17.641 18.7736 18.0648 18.588C18.0142 18.2915 17.9165 18.0714 17.7731 17.9287C17.6599 17.8162 17.2955 17.7097 17.072 17.6473L17.8382 16.7461Z" fill="black"/>
<path d="M28.7419 9.65039L31.0594 14.7958L30.798 14.9131L29.2987 14.4591L28.8024 13.3528C28.5627 13.6235 28.2794 13.8336 27.9491 13.9819C27.4583 14.202 26.88 14.2659 26.2135 14.1718C25.5469 14.0776 25.1374 13.8639 24.9817 13.5286L24.3364 12.0926L28.7419 9.65039ZM28.2751 12.1803L27.5479 10.4839L25.6814 11.4893L26.4756 13.2564C26.6399 13.6233 26.9 13.7258 27.2559 13.5664C27.348 13.525 27.449 13.4469 27.5582 13.3323C27.6664 13.2186 27.9053 12.8347 28.2751 12.1803Z" fill="black"/>
<path d="M35.4778 8.0957L36.2683 10.1984L34.0616 10.6229C33.6583 10.7003 33.3294 10.8408 33.0735 11.044C32.816 11.2478 32.7095 11.4587 32.7516 11.6767C32.8205 12.0358 33.1302 12.1616 33.6792 12.0562C33.8592 12.0218 34.0546 11.9633 34.2671 11.8825C34.2275 11.6837 34.2995 11.5023 34.4809 11.3385C34.6639 11.1755 34.923 11.0609 35.2626 10.9963C35.6568 10.9203 35.9903 10.9401 36.2624 11.0546C36.5344 11.1699 36.6926 11.3371 36.7333 11.555C36.8047 11.9234 36.6012 12.2269 36.1211 12.4646L37.5628 13.1506L36.5576 13.5274L35.1406 12.8456C34.1642 13.034 33.3755 12.9448 32.7732 12.5786C32.1714 12.2116 31.8214 11.7729 31.723 11.2613C31.6526 10.8923 31.7563 10.5619 32.0343 10.2702C32.3134 9.97777 32.7422 9.77677 33.32 9.66503L34.8264 9.37549L34.6 8.29868L35.4778 8.0957Z" fill="black"/>
<path d="M57.6459 13.1416L55.0649 17.8823L54.899 17.7916L54.2733 16.2797L55.2002 14.5801C54.6681 14.5133 54.2309 14.3868 53.8886 14.2006C53.5296 14.0037 53.18 13.7401 52.8428 13.4092C52.6157 13.5272 52.2819 13.6285 51.8383 13.7122C52.0308 14.3849 52.3232 15.2396 52.7141 16.2779L52.1782 16.32C51.214 13.9258 50.9024 12.4139 51.2461 11.7841C51.3375 11.6147 51.4739 11.5079 51.6531 11.4636C51.8309 11.4193 52.0013 11.4411 52.1613 11.5282C52.3187 11.614 52.5009 11.7679 52.7074 11.9907C52.8825 11.8213 53.009 11.6651 53.0869 11.5224C53.165 11.379 53.3081 10.9921 53.3421 10.7764L57.6459 13.1416ZM56.3618 12.4882L54.3117 11.4969C54.2526 11.79 54.1369 12.1035 54.0104 12.3369C53.8949 12.5471 53.7529 12.7319 53.5814 12.8922C53.8105 13.1418 54.0498 13.335 54.2998 13.4707C54.8164 13.7525 55.298 13.7898 55.7442 13.5825L56.3618 12.4882Z" fill="black"/>
<path d="M62.2414 16.9263C62.1235 17.1976 61.8455 17.6847 61.626 17.9216C61.0334 18.564 60.2469 18.7623 59.2642 18.5156C59.3851 19.3239 59.6669 20.4493 60.1097 21.8917L59.5157 21.8523C58.5599 18.6203 58.311 16.7555 58.772 16.257C59.0673 15.9373 59.4159 15.9632 59.8184 16.3344C60.0146 16.5158 60.2141 16.8152 60.4151 17.2313C60.7104 17.1694 60.9269 17.0639 61.0633 16.9142C61.1722 16.7976 61.3086 16.4314 61.3627 16.2052L62.2414 16.9263Z" fill="black"/>
<path d="M67.3453 23.28L66.2638 23.9431C66.4747 24.0822 66.6554 24.2679 66.8036 24.5006C67.1277 25.0073 67.2056 25.5542 67.0385 26.1434C66.8704 26.7323 66.5762 27.1611 66.1573 27.4291C65.7173 27.7102 65.1787 27.8291 64.5406 27.7861L64.7177 26.4266C65.4242 26.5202 65.9393 26.4624 66.2641 26.2551C66.5861 26.0491 66.6451 25.7876 66.4412 25.47C66.3217 25.2816 65.9125 24.9955 65.2154 24.6138L62.692 26.2256L62.5571 26.0154L62.782 24.4191L63.733 23.8118C63.2437 23.5215 62.9155 23.2446 62.7471 22.9817C62.5144 22.6155 62.4491 22.1903 62.5524 21.7044C62.6571 21.2187 62.9234 20.839 63.3544 20.5628C63.9786 20.1642 64.5129 20.3118 64.9561 21.0071C65.2309 21.4381 65.3486 22.0369 65.3068 22.8059L66.5686 22.0675L67.3453 23.28ZM64.8327 23.1087L64.9127 23.0574C64.8242 22.6905 64.7062 22.3925 64.5591 22.1633C64.3909 21.8989 64.1881 21.6895 63.9495 21.5335C63.7121 21.3767 63.5027 21.3571 63.3197 21.473C63.222 21.5363 63.1678 21.634 63.1583 21.7683C63.1471 21.9032 63.1843 22.0375 63.2693 22.171C63.4773 22.4958 63.9984 22.8086 64.8327 23.1087Z" fill="black"/>
<path d="M70.2983 29.7146L65.1557 31.5488L65.0742 31.3261L65.6312 29.8154L69.8013 28.3467L70.2983 29.7146Z" fill="black"/>
<path d="M71.6662 35.2486C71.4074 35.392 70.8508 35.6045 70.5329 35.6592C69.6727 35.8068 68.9274 35.4841 68.2976 34.6906C67.9028 35.4055 67.4392 36.4697 66.9114 37.8832L66.4653 37.4902C67.6758 34.3447 68.6155 32.7146 69.2833 32.5992C69.7128 32.5255 69.9736 32.7588 70.0668 33.2987C70.1125 33.563 70.0879 33.9215 69.9946 34.3742C70.266 34.5043 70.5012 34.552 70.7018 34.5176C70.8593 34.491 71.3 34.2445 71.4799 34.0984L71.6662 35.2486Z" fill="black"/>
<path d="M30.8154 6.01168L31.8868 5.91793C32.16 5.89418 32.4861 5.94312 32.8658 6.06513C33.2445 6.18713 33.5915 6.37931 33.9073 6.64078C34.2238 6.90314 34.7428 7.16065 35.5534 8.33157L34.9546 8.84603C34.479 8.17843 34.172 7.76653 34.0336 7.60926C33.8949 7.4518 33.6748 7.3217 33.375 7.21931C33.0754 7.1171 32.7211 7.08327 32.3101 7.11926L31.2644 7.21067L30.8154 6.01168Z" fill="black"/>
<path d="M27.4698 13.7623C27.5936 13.5935 27.8635 13.1557 28.2796 12.4492L29.1483 12.672C28.4411 13.9099 26.6107 16.4207 26.3367 16.4207L25.4805 15.8506C25.4805 15.8506 27.3445 13.9309 27.4698 13.7623Z" fill="black"/>
<path d="M39.2162 7.04266C38.6375 7.26076 38.4149 7.87744 38.3905 8.24561C38.3773 8.50581 38.5467 8.7599 38.897 9.00805C39.2468 9.25566 39.6746 9.3971 40.1793 9.43183C40.3742 9.44514 40.5752 9.44046 40.782 9.41689C40.5398 9.83311 40.2248 10.1912 39.8396 10.4901C39.495 10.0557 39.1318 9.82519 38.7502 9.7991C38.5229 9.78416 38.3298 9.84264 38.1697 9.97509C38.0102 10.1082 37.9203 10.2904 37.8992 10.52C37.8848 10.796 37.9944 11.0368 38.2294 11.2432C38.4632 11.4496 38.7795 11.5682 39.1775 11.5989C39.3687 11.6115 39.5718 11.6015 39.7879 11.5683L41.1982 13.3664L41.907 13.1891L40.5086 11.3634C41.6238 10.906 42.2152 10.1953 42.2809 9.23226C42.318 8.70052 42.1735 8.09445 41.7245 7.50387C41.7245 7.50387 41.3634 7.04248 40.6851 6.92965C40.3375 6.87153 39.8504 6.80351 39.2162 7.04266ZM41.0152 8.86643C40.8709 9.01381 40.7109 9.08075 40.539 9.06995C40.3668 9.05411 40.2236 8.98088 40.1091 8.85005C39.9945 8.71905 39.9443 8.54954 39.9583 8.34116C39.9882 7.90587 40.1025 7.66726 40.5126 7.52024C40.613 7.48425 40.8923 7.50495 40.9846 7.55839C41.2252 7.69821 41.2725 7.95787 41.2534 8.23301C41.2394 8.50833 41.1597 8.71959 41.0152 8.86643Z" fill="black"/>
<path d="M43.7008 8.02702L43.4077 12.4683L44.5338 13.5867L44.7953 13.6043L45.1876 7.82422L43.7008 8.02702Z" fill="black"/>
<path d="M14.2424 22.6953L14.7822 23.0102C14.075 24.2481 12.3079 27.239 12.038 27.6439L11.4082 27.239C11.4082 27.239 13.8262 23.4016 14.2424 22.6953Z" fill="black"/>
<path d="M64.5707 40.8443C64.3738 40.6355 64.1541 40.4963 63.9387 40.4583C63.6603 40.4092 63.6596 39.9199 63.5795 39.6455L63.2365 38.7204C63.0442 38.3218 62.8162 37.9029 62.5448 37.6322C62.1975 36.9574 61.6956 36.1772 61.0496 35.5754C58.6077 33.2966 56.5029 32.4909 60.4934 35.5994C60.9271 36.232 61.4282 36.8154 61.8106 37.4987C62.6443 38.1665 62.9114 39.3495 63.1617 40.3498C62.9943 41.0501 62.477 41.0667 61.8781 41.2994C61.4099 41.3661 60.9442 41.4336 60.4596 41.5002C58.677 41.5662 56.8916 41.3498 55.1245 41.0667C54.8918 40.9501 54.6563 40.8502 54.4078 40.7502C54.2897 40.5821 54.1744 40.4324 54.0409 40.2834C53.9944 39.5147 54.1069 38.9601 54.3649 38.39C54.6433 37.7771 55.9514 35.4581 56.4527 35.6634C56.5956 35.7217 56.6884 35.7795 56.725 35.965C56.6596 36.8316 56.6087 38.2158 57.1439 38.9665C57.2423 38.9665 57.3267 38.9827 57.41 39.0004C57.5937 38.4494 57.2589 37.6993 57.2254 37.1158C57.2423 36.6997 57.2592 36.299 57.2592 35.899C57.4645 34.529 57.8027 34.1585 58.2673 33.677L58.0285 33.7241C57.6686 33.9055 57.4142 34.1036 57.2087 34.465C57.1102 34.5332 56.9713 34.621 56.8293 34.7237C56.2888 35.1194 55.7489 35.7149 55.2773 36.1928C54.3907 37.0933 53.6873 38.8386 53.2079 39.616C53.0083 39.8162 52.807 40.0334 52.6076 40.2499C52.1915 41.0007 52.7915 41.317 52.7915 42.0991C52.724 42.1836 52.6572 42.2673 52.5736 42.3654C52.2221 42.5228 51.5543 42.9635 51.685 43.3178C51.7958 43.6166 52.1131 43.5689 52.3598 43.5899C52.5496 43.6054 52.7546 43.6301 52.8406 43.6194C52.7321 43.5287 52.6495 43.3875 52.6016 43.2455C52.4928 42.932 52.5581 42.8835 52.8235 42.7382C53.248 42.5063 53.6775 42.403 54.1747 42.3334C54.2901 42.2673 54.3903 42.2005 54.4918 42.1496C54.9748 42.1496 55.3093 42.3837 55.7408 42.5165C56.0077 42.5165 56.376 42.4498 56.5752 42.6493C56.8923 42.4174 57.1439 42.5671 57.3765 42.7998C57.8271 42.7337 58.3087 42.4996 58.7603 42.6663C59.4098 42.6009 60.1432 42.8665 60.7608 43.0177C61.1108 43.2165 61.5607 43.284 61.9438 43.3178C62.2285 43.4339 62.5124 43.5498 62.7948 43.6826C63.2785 43.7501 63.9615 44.1508 63.4284 44.6842C62.6945 44.5005 61.9776 44.0675 61.2605 43.7835C60.6439 43.6338 60.0281 43.4672 59.426 43.25H58.3421C57.179 43.3083 55.009 42.929 54.1418 43.1489L54.1416 43.1485C53.5912 43.216 53.5912 43.216 52.9905 43.3657L52.8408 43.6169C52.9407 43.8831 53.0243 44.1505 53.1077 44.433V46.1999C52.9572 47.0159 52.8068 47.8513 52.6394 48.6842C52.1572 49.501 51.4894 50.1843 50.6726 50.6518C50.4392 50.6518 50.2058 50.6689 49.9557 50.6856C49.6057 50.519 49.4221 50.0024 48.9716 50.169C48.6552 50.585 49.0889 51.3689 48.7389 51.7189C48.4726 51.685 48.3045 51.6181 48.0718 51.4677C47.9214 51.1513 47.771 50.8519 47.6212 50.551C46.8206 50.835 47.0047 51.7694 46.8368 52.4522C46.7546 52.5189 46.6716 52.585 46.5711 52.6524C46.588 52.7354 46.6042 52.8191 46.6216 52.9182C46.9549 53.1354 47.3376 53.2851 47.4206 53.7015C47.3207 53.9684 47.221 54.3524 46.9707 54.519C47.5217 54.92 47.6047 55.871 47.4881 56.4868C47.3376 56.5519 47.0873 56.6534 47.0213 56.8031C46.8539 56.8537 46.6868 56.9042 46.5201 56.9528C45.9697 57.4525 45.7365 57.7036 45.4862 58.3868C45.2373 58.7206 45.0868 59.3209 44.9702 59.7217L45.1867 59.7708C45.2373 59.5698 45.2866 59.3379 45.4201 59.2047C45.47 58.9706 45.5202 58.7534 45.5705 58.5376C45.904 58.3701 46.1034 57.9699 46.2875 57.6534C46.7204 57.3197 46.7204 57.3197 46.904 57.1036C47.2041 56.9863 47.5376 56.9701 47.8535 56.9523C48.271 57.154 48.2205 57.1036 48.2205 57.6024C48.0216 57.7367 47.8212 57.8695 47.6209 58.0034C47.254 58.3701 46.887 58.7363 46.5032 59.1203C46.2705 59.8043 45.936 60.4551 45.8369 61.1719C45.8707 61.5206 45.9036 61.8877 45.936 62.2537C46.0204 62.5539 46.2038 62.9208 45.9036 63.1203C44.786 62.9368 44.5035 61.505 44.2361 60.6049C44.0072 58.7068 44.2461 57.8853 45.4198 56.5357C45.6868 56.303 45.8703 56.2194 45.9202 55.871C44.1938 55.2676 42.0317 51.3309 44.8195 49.3353C45.8036 49.0173 45.2862 50.5514 45.2369 51.002C45.2859 51.1855 45.3199 51.3689 45.3534 51.5524C45.4854 51.7527 45.6024 51.9533 45.7203 52.1696C45.9033 52.2528 46.1212 52.4023 46.254 52.552L46.2871 52.3527C45.9357 52.1853 45.7698 51.4867 45.7023 51.1015C45.6193 49.9862 46.0692 49.0686 47.1363 48.751L47.2874 48.5522C46.7524 48.1579 46.0643 48.2864 45.4169 48.5522C44.5283 48.9149 43.9042 49.2903 43.346 50.0747C42.6727 51.0173 42.6302 51.7849 42.8076 52.5968C43.1134 53.9844 43.7664 54.4602 44.4201 55.3207C44.6809 55.4458 44.9474 55.6419 45.0507 55.8985C45.2335 56.354 44.8736 56.5319 44.5853 56.7884C44.5319 56.9008 44.463 57 44.3948 57.0991C43.0148 59.08 43.5127 61.2807 44.5484 62.6325C45.1333 63.3973 45.8707 63.8457 46.7866 64.0411C48.1897 64.3406 46.9705 63.5287 46.7206 61.905V61.1881C46.8703 60.7895 46.9709 60.3551 47.0215 59.9229C47.3702 59.3713 47.5219 58.972 47.6716 58.7377C47.9378 58.5711 48.1881 58.4045 48.4386 58.2547C48.8729 58.5051 48.8224 58.6555 48.8546 59.222C49.0718 59.7879 49.3719 60.3396 49.8049 60.7726C50.3392 61.1213 50.6386 61.1213 51.2562 61.072L51.4059 60.821C51.3721 60.7218 51.34 60.6373 51.306 60.555C50.7879 59.8212 50.5891 59.121 51.3229 58.3872C51.3865 58.4842 51.6184 58.8975 52.0244 59.1302C52.7863 59.566 53.2279 59.5344 54.1402 59.6251C54.8157 59.6925 55.267 59.8469 54.7067 58.9378C53.8238 58.3537 53.9388 57.7379 54.1405 56.7543C54.3802 56.4225 54.7563 56.0671 55.2631 55.7267C57.9652 53.925 61.129 51.8479 62.7737 47.94C63.2229 46.8736 63.5284 45.7216 63.5446 45.1508C63.792 45.0158 64.173 45.0749 64.3382 44.8978C64.9998 44.1829 63.9101 43.8287 63.6972 43.3268C63.6382 43.1879 63.6304 43.0323 63.6466 42.884C63.6923 42.4447 63.9428 42.141 64.3067 41.9267C64.4767 41.8261 64.6427 41.7336 64.7263 41.5941C64.8573 41.3721 64.7744 41.0656 64.5707 40.8443ZM53.7749 41.4669C53.4747 41.3839 53.2907 41.2166 53.1584 40.9505C53.223 40.8504 53.2414 40.734 53.3911 40.734C53.8584 40.9168 54.1747 40.9505 54.2577 41.5009C54.1082 41.4833 53.9399 41.4671 53.7749 41.4669ZM62.5959 42.1503C62.2121 42.1172 61.8281 42.0998 61.429 42.0836L61.4444 42.0006C61.6616 41.9668 61.8788 41.9331 62.0953 41.9008C62.2951 41.6013 63.0458 41.2344 63.3283 41.5169C63.1793 41.834 62.8783 41.9331 62.5959 42.1503ZM59.9444 43.8843C60.7122 44.0682 60.8105 44.8179 60.1117 45.2339C60.0106 45.151 59.8946 45.0835 59.7772 45.0182C59.6617 44.6343 59.4438 44.0502 59.9444 43.8843ZM60.2446 47.2682L60.1117 47.4356C60.0106 47.3695 59.9109 47.3021 59.8102 47.2528C59.8271 47.1522 59.844 47.051 59.844 46.9688C59.9444 46.9519 60.0441 46.935 60.1272 46.935C60.1938 47.0174 60.1938 47.0174 60.2446 47.2682ZM58.7432 43.8001C59.0094 44.2008 58.6779 44.5354 58.5106 44.8839C58.1771 44.8179 58.1771 44.8179 58.1097 44.7526C58.06 44.2345 58.0431 43.5674 58.7432 43.8001ZM58.8107 47.3357C58.5442 47.186 58.4937 47.1691 58.4937 46.852C58.5935 46.8182 58.693 46.7853 58.7938 46.7514C59.0265 46.9519 58.8775 47.1016 58.8107 47.3357ZM59.1269 47.6015C59.8102 47.8525 59.2766 48.5863 58.7769 48.6853C58.7094 48.5356 58.7094 48.5356 58.5106 48.3521C58.5106 48.0021 58.5935 47.886 58.7432 47.5844C58.8773 47.5846 59.0094 47.5846 59.1269 47.6015ZM57.6009 46.1653C57.6389 45.9375 57.7879 45.7766 57.9335 45.8006C58.0791 45.826 58.1676 46.0304 58.1311 46.256C58.0938 46.4822 57.9441 46.644 57.7985 46.6201C57.6513 46.5934 57.563 46.391 57.6009 46.1653ZM57.9848 47.4876C57.967 47.6015 57.8917 47.6816 57.8196 47.669C57.7456 47.6564 57.7014 47.5551 57.7188 47.4412C57.7391 47.3294 57.8131 47.2486 57.8871 47.2612C57.9592 47.2726 58.0042 47.3737 57.9848 47.4876ZM57.4435 47.9851H57.6931C57.71 48.1687 57.7429 48.2193 57.6762 48.369L57.4264 48.3029C57.4435 48.1854 57.4435 48.0863 57.4435 47.9851ZM49.7558 51.2524C50.1058 51.1358 50.24 51.5209 50.0896 51.7874C49.9897 51.72 49.8731 51.6525 49.7558 51.5857V51.2524ZM47.7377 52.8164C47.6941 52.6246 47.7207 52.4333 47.7952 52.2427C48.0139 52.2596 48.1803 52.3588 48.3252 52.4937C48.1283 52.732 47.9329 52.8101 47.7377 52.8164ZM48.9888 57.0887C48.2057 56.5706 48.056 55.7708 47.8541 54.9039C47.8724 54.7359 47.8879 54.5707 47.8879 54.4197C47.9547 54.4379 48.0384 54.5876 48.1384 54.6713C48.4224 55.3209 49.2391 56.338 48.9888 57.0887ZM50.0896 60.4719C49.3388 60.1548 49.156 59.0042 49.156 58.2717C49.2235 58.0046 49.305 57.5055 49.5229 57.3206C49.6228 57.3543 49.7225 57.4049 49.8054 57.4534C49.9897 57.8878 49.7556 58.1887 49.7556 58.6386C50.0221 59.1883 50.5063 59.9229 50.0896 60.4719ZM49.9897 55.4038L50.0221 55.1866L50.1394 55.2036C50.1732 55.3702 50.1563 55.3702 50.0896 55.5051L49.9897 55.4038ZM50.9724 56.589C50.8063 56.537 50.6899 56.4724 50.59 56.3043C50.5225 55.4375 51.5563 56.2037 50.9724 56.589ZM51.4741 55.4038C51.4741 55.1368 51.5902 54.9041 51.7566 54.7361C52.1912 54.954 52.0071 55.3209 51.7077 55.621L51.4741 55.4038ZM53.1077 59.1046C52.2901 58.6217 52.2902 58.6217 52.0406 58.4041C51.8565 58.0205 51.7735 57.3034 52.2234 57.0883C52.3569 57.3543 52.2732 57.7378 52.457 57.9215C53.0402 57.9215 52.3233 56.8868 53.0915 56.7702C53.2412 57.3714 53.2566 57.9872 53.4577 58.5882C53.4578 58.9382 53.4578 58.9886 53.1077 59.1046ZM52.8253 54.9378C53.1077 55.3364 53.1247 55.3364 52.7733 55.6885C52.5075 55.4713 52.4246 55.0384 52.8253 54.9378ZM52.8012 53.9572C52.9378 53.8856 53.0852 53.9024 53.1318 53.9911C53.1782 54.0818 53.1064 54.2122 52.9702 54.282C52.8345 54.3517 52.6869 54.3369 52.6398 54.2462C52.5934 54.1575 52.6655 54.0269 52.8012 53.9572ZM53.8768 56.0335C53.7411 56.104 53.5935 56.0893 53.5471 55.9986C53.5008 55.91 53.5725 55.7792 53.7081 55.709C53.8447 55.638 53.9934 55.6527 54.04 55.7432C54.0862 55.8341 54.0132 55.9624 53.8768 56.0335ZM54.2579 54.9378C54.1416 54.9716 54.0074 55.0045 53.8755 55.0384L53.7412 54.8872C53.6576 54.4717 53.7573 54.3031 54.1578 54.187C54.442 54.3875 54.4083 54.6376 54.2579 54.9378ZM53.86 53.3352L54.0299 53.1644L54.2007 53.3352L54.0299 53.5059L53.86 53.3352ZM52.257 53.7185C51.8901 54.0861 51.3728 54.3531 50.8561 54.453C50.2062 54.8199 50.2062 54.8199 50.1054 54.9372C50.0063 54.9034 49.9067 54.8698 49.7891 54.8361C49.1555 54.9372 48.7727 54.9534 48.689 54.2702C48.7216 53.8194 48.7216 53.8194 48.7891 53.6699C50.9405 52.3906 52.1755 51.5834 53.2907 48.3024C53.4078 47.584 53.524 46.8689 53.6405 46.15C53.6738 45.4015 53.691 44.6676 53.7072 43.9338C53.8246 43.584 53.8755 43.5331 54.2084 43.4003C54.2253 43.3184 54.2251 43.3178 54.1425 43.1507C54.3651 43.5502 57.2085 43.5336 57.2929 43.7994C57.259 44.8341 57.1099 45.7682 56.926 46.8018C56.4761 47.8689 56.5099 49.1676 55.5755 49.986C54.6259 51.2055 53.7668 53.0922 52.257 53.7185ZM56.8263 50.2037C56.7588 50.32 56.6758 50.4542 56.5922 50.5861C56.2753 50.4357 56.1094 50.286 56.3089 49.8692C56.4257 49.8186 56.5423 49.7864 56.6424 49.7526C56.7097 49.9028 56.7757 50.0533 56.8263 50.2037ZM55.2258 52.403L54.9917 52.4369L54.9579 52.2702L55.2091 52.3208L55.2258 52.403ZM55.5584 53.0863C55.8423 53.487 55.5422 53.837 55.2258 54.0711C54.8589 54.0206 54.8589 53.8876 54.7583 53.4701C54.8413 52.8875 55.1752 53.0532 55.5584 53.0863ZM55.4261 54.8788C55.222 54.982 55.0016 54.9596 54.9312 54.8246C54.8629 54.6911 54.9719 54.4971 55.1749 54.3916C55.3773 54.2862 55.5988 54.3101 55.6692 54.4444C55.7381 54.5772 55.63 54.7726 55.4261 54.8788ZM55.7928 51.5533C55.6917 51.5209 55.592 51.5028 55.492 51.4873C55.3921 51.1528 55.5082 51.003 55.842 50.9523C56.0574 51.1202 55.9091 51.3698 55.7928 51.5533ZM56.091 52.3532L56.2429 52.2533C56.6758 52.2533 56.5922 52.4705 56.5922 52.8031C56.1916 52.737 56.1916 52.737 56.1094 52.671C56.1094 52.5527 56.1094 52.4536 56.091 52.3532ZM56.8923 53.6704C56.6422 53.6029 56.6422 53.6029 56.559 53.52C56.5752 53.4201 56.5922 53.3371 56.5922 53.2529C56.9422 52.9029 56.9927 53.2191 57.0266 53.5376L56.8923 53.6704ZM57.1748 51.7198C57.0919 51.7536 56.9927 51.7873 56.8923 51.8189C56.6596 51.7029 56.6422 51.2524 56.8094 51.0864C56.926 51.1018 57.0427 51.1355 57.1439 51.1693C57.2087 51.3529 57.2927 51.5026 57.1748 51.7198ZM57.3929 49.7186C57.2931 49.6862 57.175 49.6525 57.0595 49.6194C56.8923 49.3853 56.8587 49.1028 57.0098 48.8694C57.1442 48.8518 57.2761 48.8356 57.4106 48.8181C57.6263 49.1197 57.5264 49.4022 57.3929 49.7186ZM57.6094 50.0364L57.7265 49.9865C58.1267 50.1854 58.2432 50.5525 57.9763 50.9523C57.8763 50.9206 57.7598 50.9025 57.6431 50.887C57.4928 50.6696 57.5419 50.3027 57.6094 50.0364ZM57.9763 52.7699C57.8273 52.7194 57.6762 52.6877 57.6094 52.5528C57.5603 51.9863 57.6263 51.6692 58.2772 51.6692C58.7432 52.0025 58.3423 52.5528 57.9763 52.7699ZM58.5106 48.8181L58.7271 48.8856C58.9604 49.1197 59.0265 49.7017 58.6441 49.8184C58.06 49.7018 58.1604 49.1683 58.5106 48.8181ZM59.5446 51.0534C59.3765 51.1862 59.2113 51.3192 59.0434 51.4535L58.8437 51.2854C58.5768 50.6527 58.7272 50.3196 59.3274 50.3196C59.5607 50.4693 59.5446 50.8038 59.5446 51.0534ZM59.5276 46.1506L59.3104 46.3025C58.9939 46.2181 58.9264 46.1858 58.7092 45.9172C58.7092 44.5838 59.8269 45.2523 59.5276 46.1506ZM60.8722 48.6349C60.8312 48.9237 60.6667 49.1328 60.5053 49.0988L60.4772 49.0918V49.103C60.7768 49.5528 60.4941 50.0036 60.1436 50.286C59.9613 50.2192 59.8271 50.1531 59.6772 50.0036C59.4771 49.3859 59.7265 49.2361 60.2777 49.1355V48.8183C60.0106 48.5527 60.1769 48.2525 60.3451 47.9364C60.7275 47.8696 60.7275 47.97 60.878 48.2862L60.8625 48.3258C60.8848 48.417 60.8891 48.5232 60.8722 48.6349ZM60.9784 46.6343C60.878 46.6188 60.7612 46.6019 60.6448 46.6021C60.544 46.3849 60.5105 45.885 60.6115 45.6847C61.3284 45.5854 61.6278 46.3179 60.9784 46.6343ZM61.5949 47.6351C61.4785 47.5691 61.3615 47.5191 61.2272 47.4685C61.2272 47.0025 61.5445 46.7347 61.978 46.6679C62.1275 46.9688 61.8943 47.5193 61.5949 47.6351ZM62.0617 45.6678C61.9443 45.653 61.8281 45.6347 61.7115 45.6192C61.5274 45.3851 61.4444 45.0351 61.5119 44.7349C61.8607 44.517 62.0953 44.6513 62.3449 44.9001C62.3787 45.3514 62.4455 45.402 62.0617 45.6678Z" fill="black"/>
<path d="M35.5782 55.3217C36.232 54.4614 36.8857 53.9854 37.1886 52.5978C37.3678 51.7859 37.3252 51.0184 36.6511 50.0757C36.0934 49.2913 35.4694 48.9159 34.5801 48.5531C33.9326 48.2873 33.2452 48.1589 32.7095 48.5531L32.86 48.752C33.9263 49.0696 34.3776 49.987 34.294 51.1025C34.2279 51.4879 34.0613 52.1863 33.7106 52.3536L33.7431 52.553C33.8781 52.4033 34.0953 52.2538 34.2767 52.1706C34.3947 51.9543 34.5108 51.7539 34.6436 51.5534C34.6772 51.3699 34.7111 51.1865 34.7609 51.0029C34.7109 50.5524 34.1943 49.0185 35.1789 49.3363C37.9667 51.3319 35.8034 55.2688 34.0775 55.872C34.1266 56.2205 34.3123 56.304 34.5765 56.5367C35.7524 57.8863 35.9907 58.7078 35.7609 60.6058C35.4949 61.5061 35.2103 62.938 34.0949 63.1213C33.7932 62.9218 33.9774 62.5548 34.0611 62.2547C34.0949 61.8887 34.1264 61.5218 34.1603 61.1729C34.0611 60.4561 33.7282 59.8051 33.4941 59.1213C33.1101 58.7373 32.7432 58.3711 32.3763 58.0043C32.1769 57.8706 31.9755 57.7378 31.776 57.6034C31.776 57.1046 31.727 57.155 32.1429 56.9533C32.4594 56.9711 32.7937 56.9871 33.0932 57.1046C33.2769 57.3205 33.2769 57.3205 33.7104 57.6543C33.8932 57.9709 34.0949 58.3711 34.428 58.5386C34.4779 58.7544 34.5272 58.9716 34.5763 59.2057C34.7107 59.3386 34.7604 59.5706 34.8118 59.7718L35.0276 59.7227C34.9112 59.3219 34.7607 58.7218 34.5103 58.3878C34.2601 57.7045 34.0275 57.4537 33.477 56.9538C33.3105 56.905 33.1439 56.8547 32.9775 56.8041C32.91 56.6544 32.6609 56.5529 32.5098 56.4877C32.3932 55.872 32.4774 54.9209 33.0257 54.52C32.7768 54.3534 32.6771 53.9694 32.5765 53.7025C32.6609 53.2863 33.0442 53.1364 33.3778 52.9192C33.394 52.82 33.4095 52.7364 33.4266 52.6534C33.3273 52.5859 33.2429 52.5199 33.1606 52.4531C32.9942 51.7702 33.1761 50.8359 32.3764 50.552C32.2267 50.8529 32.077 51.1523 31.9266 51.4686C31.693 51.6191 31.5264 51.6858 31.2586 51.7199C30.9088 51.3699 31.3432 50.586 31.0252 50.17C30.5753 50.0033 30.3918 50.52 30.0418 50.6866C29.7924 50.6697 29.559 50.6528 29.3251 50.6528C28.5088 50.1853 27.8405 49.502 27.3573 48.6852C27.1907 47.8522 27.041 47.0169 26.8913 46.2009V44.434C26.9735 44.1514 27.0565 43.884 27.1571 43.6179L27.0073 43.3667C26.4063 43.217 26.4063 43.217 25.858 43.1495L25.8578 43.1498C24.9882 42.9296 22.818 43.3093 21.6553 43.251H20.5715C19.9705 43.4682 19.3542 43.6348 18.737 43.7845C18.02 44.0685 17.303 44.5014 16.5691 44.6852C16.0356 44.1516 16.7188 43.7511 17.2031 43.6836C17.4865 43.5508 17.769 43.4347 18.0537 43.3188C18.4377 43.285 18.8867 43.2177 19.2367 43.0187C19.8532 42.8675 20.587 42.6019 21.2379 42.6672C21.6872 42.5006 22.1722 42.7347 22.6213 42.8007C22.8554 42.5681 23.1048 42.4184 23.4224 42.6503C23.6227 42.4508 23.9898 42.5175 24.2563 42.5175C24.6898 42.3847 25.0231 42.1506 25.5059 42.1506C25.6072 42.2013 25.707 42.2681 25.8245 42.3343C26.3201 42.404 26.7489 42.5073 27.1742 42.7392C27.4398 42.8846 27.5038 42.933 27.3976 43.2465C27.3491 43.3885 27.2668 43.5297 27.1594 43.6204C27.2424 43.631 27.448 43.6064 27.6388 43.5909C27.8848 43.5698 28.2033 43.6175 28.3129 43.3188C28.4437 42.9645 27.7766 42.5238 27.4237 42.3664C27.3408 42.2681 27.2747 42.1844 27.208 42.1C27.208 41.3178 27.807 41.0016 27.3917 40.2509C27.1914 40.0344 26.9908 39.8172 26.7907 39.6169C26.312 38.8396 25.6077 37.0943 24.7204 36.1938C24.2496 35.7159 23.712 35.1204 23.17 34.7247C23.0287 34.622 22.8874 34.5341 22.789 34.4659C22.5859 34.1046 22.3292 33.9065 21.9701 33.7251L21.7318 33.6779C22.1957 34.1595 22.5353 34.53 22.7384 35.8999C22.7384 36.3 22.757 36.7007 22.7723 37.1167C22.7384 37.7003 22.4046 38.4503 22.5882 39.0013C22.6724 38.9837 22.757 38.9675 22.856 38.9675C23.3895 38.2168 23.3388 36.8326 23.2733 35.966C23.3092 35.7805 23.4043 35.7227 23.5455 35.6644C24.0461 35.4591 25.3549 37.7781 25.6333 38.391C25.892 38.961 26.0045 39.5156 25.9582 40.2844C25.8254 40.4334 25.7078 40.5831 25.5913 40.7511C25.341 40.8512 25.1064 40.9509 24.8744 41.0677C23.1059 41.3507 21.3233 41.5672 19.5379 41.5012C19.0542 41.4346 18.5885 41.3671 18.1201 41.3003C17.5212 41.0677 17.0046 41.0509 16.8372 40.3508C17.0868 39.3504 17.3546 38.1675 18.1876 37.4997C18.5712 36.8164 19.0711 36.233 19.5041 35.6003C23.4953 32.4919 21.3905 33.2975 18.9488 35.5764C18.3035 36.1781 17.8 36.9584 17.4534 37.6332C17.1835 37.9038 16.9557 38.3228 16.7617 38.7213L16.4201 39.6464C16.3395 39.9207 16.3395 40.41 16.0595 40.4593C15.8447 40.4972 15.6237 40.6363 15.429 40.8453C15.2231 41.0666 15.1414 41.3732 15.2722 41.5953C15.3538 41.7346 15.5218 41.8272 15.6904 41.9278C16.0552 42.1421 16.3055 42.4459 16.3505 42.8851C16.3674 43.0334 16.3589 43.1889 16.2999 43.328C16.087 43.8299 14.9984 44.1842 15.659 44.8989C15.8256 45.076 16.2051 45.017 16.454 45.1519C16.4687 45.7227 16.7744 46.8748 17.2236 47.9411C18.8683 51.8492 22.0334 53.9264 24.7348 55.7278C25.2408 56.0683 25.6176 56.4237 25.8587 56.7555C26.0578 57.7391 26.1753 58.3549 25.2894 58.939C24.7306 59.8483 25.1818 59.6937 25.8587 59.6262C26.7698 59.5355 27.2127 59.5672 27.9738 59.1313C28.3809 58.8987 28.6128 58.4853 28.676 58.3883C29.4098 59.1222 29.2095 59.8223 28.6929 60.5562C28.6593 60.6384 28.6256 60.723 28.5918 60.8221L28.7415 61.0732C29.3593 61.1223 29.6594 61.1223 30.1922 60.7737C30.6266 60.3408 30.9261 59.7889 31.1433 59.2231C31.1771 58.6566 31.1263 58.5062 31.56 58.2559C31.8096 58.4056 32.059 58.5723 32.3262 58.7389C32.4781 58.9732 32.6278 59.3725 32.9778 59.924C33.0262 60.3563 33.1275 60.7906 33.2773 61.1892V61.9061C33.0284 63.5298 31.8096 64.3417 33.2105 64.0423C34.1284 63.8469 34.8651 63.3984 35.4514 62.6337C36.4868 61.2819 36.9845 59.0811 35.6047 57.1003C35.5358 57.0011 35.4663 56.902 35.4114 56.7895C35.1248 56.5329 34.7661 56.3551 34.9499 55.8997C35.051 55.6429 35.3189 55.4467 35.5782 55.3217ZM26.6075 40.7348C26.7572 40.7348 26.7741 40.8512 26.8409 40.9512C26.7074 41.2174 26.5245 41.3847 26.2237 41.4677C26.0579 41.4679 25.8906 41.4841 25.7409 41.5015C25.8253 40.9513 26.1416 40.9174 26.6075 40.7348ZM17.9047 41.9016C18.1197 41.9339 18.3369 41.9676 18.5541 42.0014L18.571 42.0844C18.1705 42.1006 17.7875 42.1182 17.4052 42.1511C17.1205 41.9339 16.8211 41.8348 16.6699 41.5177C16.9537 41.2352 17.703 41.6021 17.9047 41.9016ZM32.2042 52.2437C32.2778 52.4342 32.3054 52.6253 32.2609 52.8174C32.0669 52.8111 31.8695 52.733 31.6748 52.4947C31.8184 52.3596 31.9851 52.2604 32.2042 52.2437ZM30.2432 51.2532V51.5865C30.1264 51.6533 30.009 51.7208 29.9099 51.7882C29.7595 51.5217 29.893 51.1365 30.2432 51.2532ZM22.5736 48.3037L22.3226 48.3698C22.2551 48.2201 22.2888 48.1695 22.3055 47.9859H22.5567C22.5567 48.0871 22.5567 48.1862 22.5736 48.3037ZM22.0653 45.8014C22.211 45.7774 22.3607 45.9385 22.3987 46.1661C22.4367 46.3918 22.3481 46.5942 22.2002 46.6209C22.0546 46.6448 21.9049 46.4828 21.8691 46.2568C21.8312 46.0312 21.9197 45.8266 22.0653 45.8014ZM22.1792 47.6698C22.1061 47.6824 22.0334 47.6023 22.0131 47.4884C21.9954 47.3745 22.0397 47.2733 22.1117 47.262C22.1853 47.2494 22.2592 47.3302 22.279 47.442C22.2974 47.5559 22.2529 47.657 22.1792 47.6698ZM21.2555 43.8009C21.9559 43.5682 21.9388 44.2353 21.8895 44.7534C21.8229 44.8187 21.8229 44.8187 21.4887 44.8847C21.323 44.5362 20.9885 44.2015 21.2555 43.8009ZM21.188 47.3365C21.1222 47.1024 20.9708 46.9527 21.2051 46.7524C21.305 46.7862 21.4052 46.8192 21.5067 46.853C21.5065 47.1699 21.456 47.1868 21.188 47.3365ZM21.4889 48.353C21.2893 48.5366 21.2893 48.5366 21.2218 48.6863C20.7221 48.5871 20.1886 47.8533 20.8719 47.6025C20.9885 47.5856 21.1223 47.5856 21.2557 47.5856C21.4054 47.887 21.4889 48.0029 21.4889 48.353ZM20.0558 43.8851C20.5555 44.051 20.3383 44.6351 20.221 45.019C20.1044 45.0843 19.9881 45.1518 19.8892 45.2347C19.1877 44.8187 19.2881 44.0692 20.0558 43.8851ZM20.1886 47.2536C20.0887 47.3027 19.9881 47.3702 19.8892 47.4364L19.7542 47.269C19.8048 47.018 19.8048 47.018 19.8722 46.9358C19.9545 46.9358 20.0558 46.9527 20.1548 46.9696C20.1548 47.0518 20.1717 47.1531 20.1886 47.2536ZM17.6538 44.9009C17.9049 44.652 18.1368 44.5178 18.4868 44.7357C18.5543 45.0359 18.4706 45.3859 18.2882 45.62C18.1707 45.6355 18.0544 45.6538 17.9387 45.6686C17.554 45.4028 17.62 45.3522 17.6538 44.9009ZM18.4046 47.6359C18.1037 47.5199 17.871 46.9696 18.0208 46.6687C18.4537 46.7355 18.7715 47.0032 18.7715 47.4693C18.6378 47.5201 18.5205 47.5699 18.4046 47.6359ZM19.3873 45.6855C19.4884 45.8856 19.4548 46.3857 19.3549 46.6029C19.2376 46.6027 19.1215 46.6196 19.0204 46.6351C18.3709 46.3187 18.6704 45.5862 19.3873 45.6855ZM20.3214 50.0041C20.1717 50.1538 20.0389 50.2198 19.8537 50.2866C19.5039 50.0042 19.221 49.5535 19.5219 49.1036V49.0924L19.4938 49.0995C19.3324 49.1333 19.1677 48.9244 19.1255 48.6355C19.1107 48.5238 19.1148 48.4176 19.1363 48.3262L19.1215 48.2868C19.2712 47.9705 19.2712 47.8701 19.655 47.9368C19.8217 48.2532 19.9883 48.5533 19.7218 48.8189V49.136C20.2715 49.2366 20.5217 49.3863 20.3214 50.0041ZM21.2893 45.918C21.0721 46.1865 21.0047 46.2189 20.6883 46.3032L20.4711 46.1514C20.1717 45.2531 21.2893 44.5846 21.2893 45.918ZM21.1556 51.2862L20.9561 51.4542C20.7894 51.32 20.6217 51.1872 20.4558 51.0542C20.4558 50.8046 20.4387 50.4701 20.6714 50.3204C21.2724 50.3204 21.4221 50.6537 21.1556 51.2862ZM21.2724 48.8864L21.4887 48.8189C21.8394 49.1689 21.9386 49.7025 21.3568 49.8192C20.9708 49.7026 21.0383 49.1205 21.2724 48.8864ZM22.3886 52.5535C22.3228 52.6885 22.1731 52.7202 22.0219 52.7707C21.6564 52.5535 21.2555 52.0031 21.7239 51.67C22.3732 51.67 22.4387 51.9871 22.3886 52.5535ZM22.3562 50.8876C22.2398 50.9031 22.1223 50.9214 22.0219 50.9529C21.7556 50.5529 21.8729 50.186 22.2722 49.9871L22.3886 50.037C22.4554 50.3035 22.506 50.6704 22.3562 50.8876ZM22.5882 48.8189C22.7232 48.8366 22.856 48.8527 22.9891 48.8702C23.1395 49.1036 23.1055 49.3861 22.9403 49.6202C22.823 49.6533 22.7064 49.687 22.6067 49.7194C22.4723 49.403 22.3732 49.1205 22.5882 48.8189ZM22.8563 51.1701C22.9569 51.1363 23.0735 51.1026 23.1896 51.0872C23.3575 51.2532 23.3391 51.7038 23.1057 51.8197C23.0073 51.7881 22.9071 51.7544 22.8232 51.7206C22.7066 51.5034 22.7894 51.3537 22.8563 51.1701ZM23.1723 50.2045C23.2229 50.0541 23.2896 49.9036 23.3571 49.7532C23.4555 49.787 23.5727 49.8192 23.6904 49.8698C23.8894 50.2866 23.7242 50.4363 23.4064 50.5867C23.3235 50.4548 23.2398 50.3206 23.1723 50.2045ZM23.1057 53.6712L22.9738 53.5384C23.0076 53.2199 23.0568 52.9037 23.4066 53.2537C23.4066 53.3381 23.4237 53.4211 23.4404 53.5208C23.3573 53.6037 23.3573 53.6037 23.1057 53.6712ZM23.8892 52.6718C23.8072 52.7378 23.8072 52.7378 23.4062 52.8039C23.4062 52.4713 23.3233 52.2541 23.7562 52.2541L23.9059 52.354C23.8892 52.4544 23.8892 52.5535 23.8892 52.6718ZM24.1573 50.9531C24.4908 51.0037 24.6065 51.1534 24.5073 51.4881C24.4075 51.5036 24.3069 51.5219 24.2079 51.5541C24.0899 51.3706 23.9401 51.121 24.1573 50.9531ZM25.067 54.8254C24.998 54.9603 24.7774 54.9828 24.5728 54.8795C24.3697 54.7734 24.2608 54.578 24.3301 54.4452C24.3997 54.3109 24.6209 54.287 24.8235 54.3924C25.0283 54.4979 25.1357 54.6919 25.067 54.8254ZM24.7729 54.0719C24.4566 53.8378 24.1572 53.4878 24.4411 53.0871C24.8235 53.054 25.158 52.8882 25.241 53.4709C25.1398 53.8884 25.1398 54.0214 24.7729 54.0719ZM24.7729 52.4038L24.79 52.3216L25.0411 52.271L25.0072 52.4377L24.7729 52.4038ZM25.7409 54.9386C25.5912 54.6384 25.5571 54.3881 25.8415 54.1878C26.2422 54.3039 26.3405 54.4725 26.2575 54.888L26.1242 55.0392C25.9919 55.0053 25.8589 54.9724 25.7409 54.9386ZM25.7979 53.336L25.9687 53.1652L26.1395 53.336L25.9687 53.5067L25.7979 53.336ZM26.4515 55.9994C26.4072 56.0901 26.2575 56.1048 26.1211 56.0343C25.9854 55.963 25.914 55.8349 25.96 55.744C26.0063 55.6533 26.1542 55.6387 26.2899 55.7098C26.4263 55.78 26.4979 55.9108 26.4515 55.9994ZM27.9585 58.4051C27.7084 58.6226 27.7084 58.6226 26.8924 59.1056C26.5424 58.9894 26.5424 58.939 26.5424 58.589C26.7412 57.988 26.7574 57.3722 26.9071 56.771C27.676 56.8876 26.9591 57.9223 27.5418 57.9223C27.7253 57.7386 27.6424 57.3551 27.7745 57.0891C28.2258 57.3043 28.1414 58.0214 27.9585 58.4051ZM27.3582 54.2469C27.314 54.3375 27.1643 54.3523 27.0293 54.2827C26.8922 54.2128 26.8207 54.0824 26.8672 53.9917C26.9136 53.9032 27.0611 53.8862 27.1968 53.9579C27.333 54.0277 27.4061 54.1583 27.3582 54.2469ZM27.2254 55.6893C26.8747 55.3372 26.892 55.3372 27.1749 54.9386C27.5754 55.0392 27.4912 55.4721 27.2254 55.6893ZM28.2925 55.6218C27.9924 55.3217 27.8076 54.9548 28.242 54.7369C28.4086 54.9049 28.5245 55.1376 28.5245 55.4046L28.2925 55.6218ZM27.7399 53.7192C26.2314 53.0932 25.3731 51.2063 24.422 49.987C23.4879 49.1686 23.5216 47.8697 23.0724 46.8028C22.8889 45.7693 22.7379 44.8351 22.7055 43.8004C22.7885 43.5342 25.6376 43.551 25.8577 43.1511C25.774 43.3188 25.7738 43.3192 25.7907 43.4012C26.1233 43.534 26.1744 43.585 26.2904 43.9348C26.3073 44.6686 26.3241 45.4024 26.3579 46.151C26.474 46.8699 26.59 47.585 26.7066 48.3034C27.8229 51.5843 29.0593 52.3916 31.2102 53.6708C31.277 53.8204 31.277 53.8204 31.3093 54.2711C31.225 54.9544 30.8426 54.9382 30.2086 54.8371C30.0925 54.8709 29.9936 54.9044 29.8923 54.9382C29.7924 54.8209 29.7924 54.8209 29.1415 54.454C28.6249 54.3539 28.1083 54.0869 27.7399 53.7192ZM30.009 55.4046L29.9099 55.5058C29.8424 55.3708 29.8253 55.3708 29.8593 55.2042L29.9758 55.1873L30.009 55.4046ZM29.4102 56.3051C29.3089 56.4732 29.193 56.5378 29.0264 56.5898C28.4422 56.2045 29.4769 55.4383 29.4102 56.3051ZM29.9099 60.4727C29.4924 59.9237 29.9758 59.1891 30.2432 58.6394C30.2432 58.1895 30.009 57.8886 30.1926 57.4542C30.2772 57.4055 30.3767 57.3549 30.4766 57.3214C30.693 57.5062 30.7767 58.0054 30.8435 58.2725C30.8435 59.005 30.6592 60.1556 29.9099 60.4727ZM31.0092 57.0895C30.7596 56.3387 31.5778 55.3217 31.8603 54.6721C31.9609 54.5882 32.0439 54.4385 32.1114 54.4205C32.1114 54.5717 32.1261 54.7368 32.1439 54.9047C31.9428 55.7715 31.793 56.5714 31.0092 57.0895Z" fill="black"/>
<path d="M90 14.608H112.68V18.64H109.368V37H104.328V27.604H99V28.396C99 30.52 98.1 31.492 96.48 31.492C94.104 31.492 91.116 28.288 91.116 25.912C91.116 24.508 91.728 23.572 93.924 23.572H104.328V18.64H90V14.608ZM121.22 18.64V28.684C121.22 30.808 120.356 31.816 118.736 31.816C116.288 31.816 113.3 28.576 113.3 26.2C113.3 24.796 113.948 23.86 116.144 23.86L116.18 23.932V18.64H112.148V14.608H134.9V18.64H131.588V37H126.548V18.64H121.22ZM149.163 34.588L145.707 37.792C141.819 34.48 138.939 31.636 137.175 29.152C136.023 27.604 135.555 26.452 135.555 25.228C135.555 23.716 136.599 22.744 138.219 22.744C139.443 22.744 140.451 23.248 141.531 24.184C142.683 23.392 143.187 22.348 143.187 20.944C143.187 20.116 143.043 19.324 142.791 18.64H134.367V14.608H150.783V18.64H147.759C148.011 19.468 148.191 20.44 148.191 21.664C148.191 25.192 145.995 27.424 142.467 28.792C144.447 30.736 146.679 32.644 149.163 34.588ZM176.024 18.64V37H170.984V30.952C169.652 31.564 168.104 31.924 166.592 31.924C161.516 31.924 159.032 29.368 159.032 24.4V18.64H156.656V14.608H179.336V18.64H176.024ZM170.984 18.64H164.036V24.328C164.036 26.884 165.008 27.892 166.952 27.892C168.464 27.892 169.94 27.064 170.984 26.092V18.64ZM186.617 18.64V37H181.577V18.64H178.805V14.608H189.929V18.64H186.617ZM197.199 18.64V37H192.159V18.64H189.387V14.608H192.015C191.475 13.6 191.043 12.484 191.043 10.972C191.043 6.976 194.823 4.744 201.231 4.744C211.491 4.744 219.591 9.352 223.767 14.86H218.583C214.479 11.044 208.863 8.812 202.203 8.812C198.171 8.812 196.083 10.036 196.083 12.196C196.083 13.132 196.407 13.96 196.875 14.608H200.511V18.64H197.199ZM199.969 18.64V14.608H227.041V18.64H223.729V37H218.725V25.66H218.689C216.709 25.66 215.449 27.172 214.981 30.7L210.193 29.584C210.337 28.36 210.625 27.28 211.021 26.344C210.445 25.984 209.761 25.732 208.969 25.732C207.241 25.732 206.269 26.812 206.269 28.432C206.269 30.52 207.817 32.068 211.993 34.156L209.329 37.828C204.289 35.452 201.229 32.356 201.229 28.108C201.229 23.788 204.073 21.664 208.105 21.664C210.193 21.664 211.813 22.312 213.181 23.428C214.513 22.312 216.277 21.736 218.401 21.736C218.509 21.736 218.617 21.736 218.725 21.736V18.64H199.969ZM256.967 18.64H245.231V23.68C246.275 22.996 247.499 22.6 249.119 22.6C252.863 22.6 255.239 24.94 255.239 28.792C255.239 31.132 254.447 33.4 252.431 35.956L248.075 33.544C249.371 32.032 250.235 30.556 250.235 28.864C250.235 27.352 249.479 26.596 248.183 26.596C246.995 26.596 245.843 27.352 245.231 28.36V37H240.191V32.428C238.823 33.292 237.131 33.724 235.295 33.724C230.867 33.724 227.807 31.42 227.807 27.208C227.807 23.14 230.651 20.836 235.583 20.836C236.807 20.836 238.031 20.944 239.111 21.16L238.679 25.156C237.959 24.976 237.095 24.868 236.195 24.868C234.035 24.868 232.847 25.768 232.847 27.352C232.847 28.9 233.999 29.692 235.691 29.692C237.563 29.692 239.219 28.612 240.191 27.352V18.64H226.547V14.608H256.967V18.64ZM264.242 18.64V37H259.202V18.64H256.43V14.608H267.554V18.64H264.242ZM292.778 18.64V37H287.738V30.952C286.406 31.564 284.858 31.924 283.346 31.924C278.27 31.924 275.786 29.368 275.786 24.4V18.64H273.41V14.608H296.09V18.64H292.778ZM287.738 18.64H280.79V24.328C280.79 26.884 281.762 27.892 283.706 27.892C285.218 27.892 286.694 27.064 287.738 26.092V18.64ZM303.371 18.64V37H298.331V18.64H295.559V14.608H298.223C297.647 13.492 297.215 12.304 297.215 10.72C297.215 7.012 300.203 4.744 304.595 4.744C310.787 4.744 314.927 8.668 318.095 14.86H313.235C311.219 11.008 308.699 8.776 305.675 8.776C303.515 8.776 302.255 9.928 302.255 11.836C302.255 12.88 302.615 13.78 303.047 14.608H306.683V18.64H303.371ZM320.937 34.588L317.481 37.792C313.593 34.48 310.713 31.636 308.949 29.152C307.797 27.604 307.329 26.452 307.329 25.228C307.329 23.716 308.373 22.744 309.993 22.744C311.217 22.744 312.225 23.248 313.305 24.184C314.457 23.392 314.961 22.348 314.961 20.944C314.961 20.116 314.817 19.324 314.565 18.64H306.141V14.608H322.557V18.64H319.533C319.785 19.468 319.965 20.44 319.965 21.664C319.965 25.192 317.769 27.424 314.241 28.792C316.221 30.736 318.453 32.644 320.937 34.588ZM341.903 18.64V37H336.863V31.168C335.423 31.852 333.659 32.212 331.967 32.212C326.891 32.212 324.407 29.656 324.407 24.688V18.64H322.031V14.608H345.215V18.64H341.903ZM336.863 18.64H331.319L336.863 25.696V18.64ZM329.303 24.616C329.303 27.172 330.311 28.18 332.327 28.18C333.227 28.18 334.091 27.964 334.847 27.64L329.303 20.548V24.616ZM359.432 39.52C358.676 37.972 358.064 36.316 357.596 34.912C357.056 34.984 356.444 35.02 355.724 35.02C350.936 35.02 346.04 32.824 346.04 27.532C346.04 22.96 349.136 20.728 355.436 20.728H356.876V18.64H344.672V14.608H365.372V18.64H361.844V24.58H356.264C352.7 24.58 351.044 25.588 351.044 27.748C351.044 29.836 352.808 30.952 355.652 30.952C355.904 30.952 356.156 30.916 356.444 30.916C356.372 30.628 356.372 30.376 356.372 30.124C356.372 28.216 357.632 27.208 359.612 27.208C361.988 27.208 363.5 28.756 363.5 30.628C363.5 31.924 362.816 32.896 361.52 33.58C362.132 34.876 362.852 36.316 363.824 37.864L359.432 39.52ZM368.595 42.616V40.276C369.387 40.084 370.023 39.712 370.503 39.16C371.007 38.632 371.319 37.912 371.439 37H369.315V31.96H374.067V35.056C374.067 37.168 373.599 38.86 372.663 40.132C371.751 41.404 370.395 42.232 368.595 42.616ZM384.152 14.608H406.832V18.64H403.52V37H398.48V27.604H393.152V28.396C393.152 30.52 392.252 31.492 390.632 31.492C388.256 31.492 385.268 28.288 385.268 25.912C385.268 24.508 385.88 23.572 388.076 23.572H398.48V18.64H384.152V14.608ZM414.113 18.64V37H409.073V18.64H406.301V14.608H417.425V18.64H414.113ZM416.883 14.608H439.563V18.64H436.251V37H431.211V27.604H425.883V28.396C425.883 30.52 424.983 31.492 423.363 31.492C420.987 31.492 417.999 28.288 417.999 25.912C417.999 24.508 418.611 23.572 420.807 23.572H431.211V18.64H416.883V14.608ZM458.399 18.64V37H453.359V30.952C452.027 31.564 450.479 31.924 448.967 31.924C443.891 31.924 441.407 29.368 441.407 24.4V18.64H439.031V14.608H461.711V18.64H458.399ZM453.359 18.64H446.411V24.328C446.411 26.884 447.383 27.892 449.327 27.892C450.839 27.892 452.315 27.064 453.359 26.092V18.64ZM468.992 18.64V37H463.952V18.64H461.18V14.608H472.304V18.64H468.992ZM486.558 34.588L483.102 37.792C479.214 34.48 476.334 31.636 474.57 29.152C473.418 27.604 472.95 26.452 472.95 25.228C472.95 23.716 473.994 22.744 475.614 22.744C476.838 22.744 477.846 23.248 478.926 24.184C480.078 23.392 480.582 22.348 480.582 20.944C480.582 20.116 480.438 19.324 480.186 18.64H471.762V14.608H488.178V18.64H485.154C485.406 19.468 485.586 20.44 485.586 21.664C485.586 25.192 483.39 27.424 479.862 28.792C481.842 30.736 484.074 32.644 486.558 34.588ZM495.464 18.64V37H490.424V18.64H487.652V14.608H498.776V18.64H495.464Z" fill="#001F67"/>
<path d="M107.016 62.76V75H103.656V67.248H101.976C101.304 67.248 100.776 67.224 100.368 67.176C101.256 67.968 101.736 68.88 101.736 70.032C101.736 72.288 100.008 73.488 97.752 73.488C94.776 73.488 92.4 71.784 90.456 65.88L93.216 64.872C94.464 68.808 95.712 70.776 97.2 70.776C97.944 70.776 98.448 70.416 98.448 69.528C98.448 68.424 97.68 67.536 96.336 66.672L97.176 64.632H103.656V62.76H90V60.072H109.224V62.76H107.016ZM108.867 60.072H123.987V62.76H121.779V75H118.419V68.736H114.867V69.264C114.867 70.68 114.267 71.328 113.187 71.328C111.603 71.328 109.611 69.192 109.611 67.608C109.611 66.672 110.019 66.048 111.483 66.048H118.419V62.76H108.867V60.072ZM136.545 62.76V75H133.185V70.968C132.297 71.376 131.265 71.616 130.257 71.616C126.873 71.616 125.217 69.912 125.217 66.6V62.76H123.633V60.072H138.753V62.76H136.545ZM133.185 62.76H128.553V66.552C128.553 68.256 129.201 68.928 130.497 68.928C131.505 68.928 132.489 68.376 133.185 67.728V62.76ZM148.238 76.68C147.734 75.648 147.326 74.544 147.014 73.608C146.654 73.656 146.246 73.68 145.766 73.68C142.574 73.68 139.31 72.216 139.31 68.688C139.31 65.64 141.374 64.152 145.574 64.152H146.534V62.76H138.398V60.072H152.198V62.76H149.846V66.72H146.126C143.75 66.72 142.646 67.392 142.646 68.832C142.646 70.224 143.822 70.968 145.718 70.968C145.886 70.968 146.054 70.944 146.246 70.944C146.198 70.752 146.198 70.584 146.198 70.416C146.198 69.144 147.038 68.472 148.358 68.472C149.942 68.472 150.95 69.504 150.95 70.752C150.95 71.616 150.494 72.264 149.63 72.72C150.038 73.584 150.518 74.544 151.166 75.576L148.238 76.68ZM171.333 62.76H169.125V75H165.789V72.168C164.829 72.672 163.701 72.936 162.309 72.936C159.021 72.936 156.981 71.232 156.981 68.496C156.981 65.616 159.093 64.128 162.357 64.128C163.389 64.128 164.253 64.224 165.045 64.416L164.781 66.864C164.229 66.744 163.557 66.648 162.789 66.648C162.741 66.648 162.669 66.648 162.597 66.648L164.949 69.624C165.261 69.408 165.549 69.168 165.789 68.928V62.76H156.141V60.072H171.333V62.76ZM160.125 68.592C160.125 69.84 161.037 70.416 162.429 70.416C162.693 70.416 162.957 70.392 163.197 70.344L160.725 67.224C160.341 67.536 160.125 67.992 160.125 68.592ZM179.304 73.776C180 73.32 180.408 72.792 180.408 72.216C180.408 71.472 179.784 70.92 178.32 70.92C176.592 70.92 175.656 71.616 175.656 72.768C175.656 74.208 177.264 75.072 180.936 76.296L179.52 78.912C174.648 77.52 172.32 75.552 172.32 72.816C172.32 71.472 172.8 70.464 173.64 69.744C172.728 68.952 172.296 68.088 172.296 67.152C172.296 65.208 173.784 64.152 176.472 64.152H179.424V62.76H171V60.072H184.944V62.76H182.736V66.72H176.976C176.016 66.72 175.584 67.056 175.584 67.656C175.584 67.992 175.752 68.304 176.088 68.592C176.808 68.424 177.624 68.328 178.488 68.328C182.184 68.328 183.72 70.08 183.72 72.096C183.72 73.344 183.216 74.376 182.04 75.36L179.304 73.776ZM194.458 73.392L192.154 75.528C189.562 73.32 187.642 71.424 186.466 69.768C185.698 68.736 185.386 67.968 185.386 67.152C185.386 66.144 186.082 65.496 187.162 65.496C187.978 65.496 188.65 65.832 189.37 66.456C190.138 65.928 190.474 65.232 190.474 64.296C190.474 63.744 190.378 63.216 190.21 62.76H184.594V60.072H195.538V62.76H193.522C193.69 63.312 193.81 63.96 193.81 64.776C193.81 67.128 192.346 68.616 189.994 69.528C191.314 70.824 192.802 72.096 194.458 73.392ZM200.396 62.76V75H197.036V62.76H195.188V60.072H202.604V62.76H200.396ZM208.77 70.32C207.93 70.32 206.994 70.464 206.13 70.728C204.69 69.96 203.25 68.616 203.25 66.936C203.25 65.16 204.474 64.152 206.994 64.152H209.586V62.76H202.242V60.072H215.106V62.76H212.898V66.432H207.786C206.898 66.432 206.538 66.72 206.538 67.248C206.538 67.608 206.778 67.944 207.09 68.208C207.93 68.04 208.674 67.92 209.682 67.92C212.658 67.92 213.93 69.336 213.93 71.304C213.93 73.536 212.274 74.928 209.034 75C209.826 75.768 210.69 76.512 211.65 77.256L209.25 79.152C208.026 77.832 206.97 76.512 206.034 75.192C204.138 74.952 203.082 74.136 203.082 72.96C203.082 72 203.754 71.448 204.81 71.448C205.53 71.448 206.274 71.808 206.994 72.624C207.282 72.624 207.522 72.624 207.738 72.624C209.634 72.624 210.546 72.24 210.546 71.304C210.546 70.656 210.09 70.32 208.77 70.32ZM231.75 62.76H229.518V75H226.182V72.12C225.246 72.648 224.094 72.912 222.798 72.912C219.942 72.912 217.926 71.472 217.926 69.168C217.926 68.232 218.262 67.512 218.766 67.08L215.622 67.152V64.464H224.67L224.43 67.128H223.494C222.054 67.128 221.262 67.656 221.262 68.712C221.262 69.648 221.958 70.2 223.134 70.2C224.43 70.2 225.51 69.504 226.182 68.64V62.76H214.758V60.072H231.75V62.76ZM233.87 78.744V77.184C234.398 77.056 234.822 76.808 235.142 76.44C235.478 76.088 235.686 75.608 235.766 75H234.35V71.64H237.518V73.704C237.518 75.112 237.206 76.24 236.582 77.088C235.974 77.936 235.07 78.488 233.87 78.744ZM244.242 60.072H258.642V62.76H256.242C256.578 63.24 256.746 63.84 256.746 64.536C256.746 65.568 256.314 66.456 255.522 67.128C256.866 68.352 257.394 69.528 257.394 70.92C257.394 73.464 255.45 75 252.57 75C249.162 75 246.834 73.296 244.866 67.704L247.554 66.48C248.922 70.464 250.194 72.24 252.09 72.24C253.266 72.24 254.01 71.592 254.01 70.488C254.01 69.648 253.674 68.928 252.978 68.304C252.282 68.472 251.514 68.592 250.65 68.64L250.17 66.048C252.45 65.88 253.386 65.448 253.386 64.248C253.386 63.672 253.146 63.168 252.69 62.76H244.242V60.072ZM258.281 62.76V60.072H276.281V62.76H274.073V75H270.713V68.016H267.665C266.081 68.016 265.241 68.592 265.241 69.84C265.241 71.04 266.105 72.12 267.713 73.632L265.265 75.552C263.129 73.464 261.881 71.688 261.881 69.456C261.881 68.904 261.953 68.4 262.121 67.944L259.145 68.04V65.328H270.713V62.76H258.281ZM285.794 73.392L283.49 75.528C280.898 73.32 278.978 71.424 277.802 69.768C277.034 68.736 276.722 67.968 276.722 67.152C276.722 66.144 277.418 65.496 278.498 65.496C279.314 65.496 279.986 65.832 280.706 66.456C281.474 65.928 281.81 65.232 281.81 64.296C281.81 63.744 281.714 63.216 281.546 62.76H275.93V60.072H286.874V62.76H284.858C285.026 63.312 285.146 63.96 285.146 64.776C285.146 67.128 283.682 68.616 281.33 69.528C282.65 70.824 284.138 72.096 285.794 73.392ZM291.821 73.248L295.373 71.352C293.357 70.776 292.373 69.168 292.373 66.6V62.76H290.789V60.072H305.909V62.76H303.701V75H300.341V70.992L293.357 75.624L291.821 73.248ZM300.341 62.76H295.709V66.552C295.709 68.256 296.357 68.928 297.653 68.928C298.661 68.928 299.645 68.376 300.341 67.728V62.76ZM315.395 76.68C314.891 75.648 314.483 74.544 314.171 73.608C313.811 73.656 313.403 73.68 312.923 73.68C309.731 73.68 306.467 72.216 306.467 68.688C306.467 65.64 308.531 64.152 312.731 64.152H313.691V62.76H305.555V60.072H319.355V62.76H317.003V66.72H313.283C310.907 66.72 309.803 67.392 309.803 68.832C309.803 70.224 310.979 70.968 312.875 70.968C313.043 70.968 313.211 70.944 313.403 70.944C313.355 70.752 313.355 70.584 313.355 70.416C313.355 69.144 314.195 68.472 315.515 68.472C317.099 68.472 318.107 69.504 318.107 70.752C318.107 71.616 317.651 72.264 316.787 72.72C317.195 73.584 317.675 74.544 318.323 75.576L315.395 76.68ZM313.803 60.24C312.699 56.904 312.195 56.232 310.827 56.232C310.251 56.232 309.603 56.376 309.051 56.592L308.211 53.976C309.075 53.64 310.035 53.496 310.971 53.496C313.923 53.496 315.027 54.888 316.683 60.24H313.803ZM322.487 71.52C320.783 71.496 319.583 70.68 319.583 69.192C319.583 68.016 320.447 67.296 321.671 67.296C322.559 67.296 323.231 67.608 323.951 68.256C325.631 67.608 326.567 66.192 326.567 64.44C326.567 63.072 325.991 62.28 324.911 62.28C324.167 62.28 323.735 62.712 323.735 63.288C323.735 64.056 324.431 64.44 325.607 64.584L324.695 66.552C321.983 66.288 320.663 65.04 320.663 63.168C320.663 61.2 322.103 59.832 324.791 59.832C328.055 59.832 329.831 61.848 329.831 64.68C329.831 67.224 328.511 69.12 326.087 70.392C327.167 71.4 328.151 72.528 329.063 73.704L326.279 75.456C325.247 73.92 324.215 72.576 323.279 71.472C323.015 71.496 322.751 71.52 322.487 71.52ZM335.375 62.76V75H332.039V62.76H330.383V60.072H337.583V62.76H335.375Z" fill="#001F67"/>
</svg>
